<svg width="58" height="58" viewBox="0 0 58 58" fill="none" xmlns="http://www.w3.org/2000/svg">
<g id="icon-pause">
<g id="Shape">
<path fill-rule="evenodd" clip-rule="evenodd" d="M14.4703 7.23499C13.1383 7.23499 12.0586 8.31473 12.0586 9.64665V48.2333C12.0586 49.5652 13.1383 50.645 14.4703 50.645H24.1169C25.4489 50.645 26.5286 49.5652 26.5286 48.2333V9.64665C26.5286 8.31473 25.4489 7.23499 24.1169 7.23499H14.4703ZM16.8819 45.8217V12.0583H21.7053V45.8217H16.8819Z" fill="white"/>
<path fill-rule="evenodd" clip-rule="evenodd" d="M33.7636 7.23499C32.4317 7.23499 31.3519 8.31473 31.3519 9.64665V48.2333C31.3519 49.5652 32.4317 50.645 33.7636 50.645H43.4103C44.7422 50.645 45.8219 49.5652 45.8219 48.2333V9.64665C45.8219 8.31473 44.7422 7.23499 43.4103 7.23499H33.7636ZM36.1753 45.8217V12.0583H40.9986V45.8217H36.1753Z" fill="white"/>
</g>
</g>
</svg>
